<svg class="rich-terminal" viewBox="0 0 580 342.79999999999995" xmlns="http://www.w3.org/2000/svg">
    <!-- Generated with Rich https://www.textualize.io -->
    <style>

    @font-face {
        font-family: "Fira Code";
        src: local("FiraCode-Regular"),
                url("https://cdnjs.cloudflare.com/ajax/libs/firacode/6.2.0/woff2/FiraCode-Regular.woff2") format("woff2"),
                url("https://cdnjs.cloudflare.com/ajax/libs/firacode/6.2.0/woff/FiraCode-Regular.woff") format("woff");
        font-style: normal;
        font-weight: 400;
    }
    @font-face {
        font-family: "Fira Code";
        src: local("FiraCode-Bold"),
                url("https://cdnjs.cloudflare.com/ajax/libs/firacode/6.2.0/woff2/FiraCode-Bold.woff2") format("woff2"),
                url("https://cdnjs.cloudflare.com/ajax/libs/firacode/6.2.0/woff/FiraCode-Bold.woff") format("woff");
        font-style: bold;
        font-weight: 700;
    }

    .terminal-1326831548-matrix {
        font-family: Fira Code, monospace;
        font-size: 20px;
        line-height: 24.4px;
        font-variant-east-asian: full-width;
    }

    .terminal-1326831548-title {
        font-size: 18px;
        font-weight: bold;
        font-family: arial;
    }

    .terminal-1326831548-r1 { fill: #bebebe;font-weight: bold }
.terminal-1326831548-r2 { fill: #545454 }
.terminal-1326831548-r3 { fill: #ababab;font-style: italic; }
.terminal-1326831548-r4 { fill: #c5c8c6 }
.terminal-1326831548-r5 { fill: #d0d0d0 }
.terminal-1326831548-r6 { fill: #666666 }
.terminal-1326831548-r7 { fill: #ed9d13 }
.terminal-1326831548-r8 { fill: #51b2fd }
    </style>

    <defs>
    <clipPath id="terminal-1326831548-clip-terminal">
      <rect x="0" y="0" width="560.1999999999999" height="291.79999999999995" />
    </clipPath>
    <clipPath id="terminal-1326831548-line-0">
    <rect x="0" y="1.5" width="561.2" height="24.65"/>
            </clipPath>
<clipPath id="terminal-1326831548-line-1">
    <rect x="0" y="25.9" width="561.2" height="24.65"/>
            </clipPath>
<clipPath id="terminal-1326831548-line-2">
    <rect x="0" y="50.3" width="561.2" height="24.65"/>
            </clipPath>
<clipPath id="terminal-1326831548-line-3">
    <rect x="0" y="74.7" width="561.2" height="24.65"/>
            </clipPath>
<clipPath id="terminal-1326831548-line-4">
    <rect x="0" y="99.1" width="561.2" height="24.65"/>
            </clipPath>
<clipPath id="terminal-1326831548-line-5">
    <rect x="0" y="123.5" width="561.2" height="24.65"/>
            </clipPath>
<clipPath id="terminal-1326831548-line-6">
    <rect x="0" y="147.9" width="561.2" height="24.65"/>
            </clipPath>
<clipPath id="terminal-1326831548-line-7">
    <rect x="0" y="172.3" width="561.2" height="24.65"/>
            </clipPath>
<clipPath id="terminal-1326831548-line-8">
    <rect x="0" y="196.7" width="561.2" height="24.65"/>
            </clipPath>
<clipPath id="terminal-1326831548-line-9">
    <rect x="0" y="221.1" width="561.2" height="24.65"/>
            </clipPath>
<clipPath id="terminal-1326831548-line-10">
    <rect x="0" y="245.5" width="561.2" height="24.65"/>
            </clipPath>
    </defs>

    <rect fill="#292929" stroke="rgba(255,255,255,0.35)" stroke-width="1" x="1" y="1" width="578" height="340.8" rx="8"/><text class="terminal-1326831548-title" fill="#c5c8c6" text-anchor="middle" x="289" y="27">Usage.sh</text>
            <g transform="translate(26,22)">
            <circle cx="0" cy="0" r="7" fill="#ff5f57"/>
            <circle cx="22" cy="0" r="7" fill="#febc2e"/>
            <circle cx="44" cy="0" r="7" fill="#28c840"/>
            </g>
        
    <g transform="translate(9, 41)" clip-path="url(#terminal-1326831548-clip-terminal)">
    <rect fill="#202020" x="0" y="1.5" width="24.4" height="24.65" shape-rendering="crispEdges"/><rect fill="#202020" x="24.4" y="1.5" width="36.6" height="24.65" shape-rendering="crispEdges"/><rect fill="#202020" x="61" y="1.5" width="109.8" height="24.65" shape-rendering="crispEdges"/><rect fill="#202020" x="170.8" y="1.5" width="390.4" height="24.65" shape-rendering="crispEdges"/><rect fill="#202020" x="0" y="25.9" width="24.4" height="24.65" shape-rendering="crispEdges"/><rect fill="#202020" x="24.4" y="25.9" width="36.6" height="24.65" shape-rendering="crispEdges"/><rect fill="#202020" x="61" y="25.9" width="500.2" height="24.65" shape-rendering="crispEdges"/><rect fill="#202020" x="0" y="50.3" width="24.4" height="24.65" shape-rendering="crispEdges"/><rect fill="#202020" x="24.4" y="50.3" width="36.6" height="24.65" shape-rendering="crispEdges"/><rect fill="#202020" x="61" y="50.3" width="488" height="24.65" shape-rendering="crispEdges"/><rect fill="#202020" x="549" y="50.3" width="12.2" height="24.65" shape-rendering="crispEdges"/><rect fill="#202020" x="0" y="74.7" width="24.4" height="24.65" shape-rendering="crispEdges"/><rect fill="#202020" x="24.4" y="74.7" width="36.6" height="24.65" shape-rendering="crispEdges"/><rect fill="#202020" x="61" y="74.7" width="390.4" height="24.65" shape-rendering="crispEdges"/><rect fill="#202020" x="451.4" y="74.7" width="109.8" height="24.65" shape-rendering="crispEdges"/><rect fill="#202020" x="0" y="99.1" width="24.4" height="24.65" shape-rendering="crispEdges"/><rect fill="#202020" x="24.4" y="99.1" width="36.6" height="24.65" shape-rendering="crispEdges"/><rect fill="#202020" x="61" y="99.1" width="12.2" height="24.65" shape-rendering="crispEdges"/><rect fill="#202020" x="73.2" y="99.1" width="12.2" height="24.65" shape-rendering="crispEdges"/><rect fill="#202020" x="85.4" y="99.1" width="170.8" height="24.65" shape-rendering="crispEdges"/><rect fill="#202020" x="256.2" y="99.1" width="305" height="24.65" shape-rendering="crispEdges"/><rect fill="#202020" x="0" y="123.5" width="24.4" height="24.65" shape-rendering="crispEdges"/><rect fill="#202020" x="24.4" y="123.5" width="36.6" height="24.65" shape-rendering="crispEdges"/><rect fill="#202020" x="61" y="123.5" width="500.2" height="24.65" shape-rendering="crispEdges"/><rect fill="#202020" x="0" y="147.9" width="24.4" height="24.65" shape-rendering="crispEdges"/><rect fill="#202020" x="24.4" y="147.9" width="36.6" height="24.65" shape-rendering="crispEdges"/><rect fill="#202020" x="61" y="147.9" width="292.8" height="24.65" shape-rendering="crispEdges"/><rect fill="#202020" x="353.8" y="147.9" width="207.4" height="24.65" shape-rendering="crispEdges"/><rect fill="#202020" x="0" y="172.3" width="24.4" height="24.65" shape-rendering="crispEdges"/><rect fill="#202020" x="24.4" y="172.3" width="36.6" height="24.65" shape-rendering="crispEdges"/><rect fill="#202020" x="61" y="172.3" width="36.6" height="24.65" shape-rendering="crispEdges"/><rect fill="#202020" x="97.6" y="172.3" width="12.2" height="24.65" shape-rendering="crispEdges"/><rect fill="#202020" x="109.8" y="172.3" width="207.4" height="24.65" shape-rendering="crispEdges"/><rect fill="#202020" x="317.2" y="172.3" width="244" height="24.65" shape-rendering="crispEdges"/><rect fill="#202020" x="0" y="196.7" width="24.4" height="24.65" shape-rendering="crispEdges"/><rect fill="#202020" x="24.4" y="196.7" width="36.6" height="24.65" shape-rendering="crispEdges"/><rect fill="#202020" x="61" y="196.7" width="48.8" height="24.65" shape-rendering="crispEdges"/><rect fill="#202020" x="109.8" y="196.7" width="12.2" height="24.65" shape-rendering="crispEdges"/><rect fill="#202020" x="122" y="196.7" width="317.2" height="24.65" shape-rendering="crispEdges"/><rect fill="#202020" x="439.2" y="196.7" width="122" height="24.65" shape-rendering="crispEdges"/><rect fill="#202020" x="0" y="221.1" width="24.4" height="24.65" shape-rendering="crispEdges"/><rect fill="#202020" x="24.4" y="221.1" width="36.6" height="24.65" shape-rendering="crispEdges"/><rect fill="#202020" x="61" y="221.1" width="48.8" height="24.65" shape-rendering="crispEdges"/><rect fill="#202020" x="109.8" y="221.1" width="12.2" height="24.65" shape-rendering="crispEdges"/><rect fill="#202020" x="122" y="221.1" width="402.6" height="24.65" shape-rendering="crispEdges"/><rect fill="#202020" x="524.6" y="221.1" width="36.6" height="24.65" shape-rendering="crispEdges"/><rect fill="#202020" x="0" y="245.5" width="24.4" height="24.65" shape-rendering="crispEdges"/><rect fill="#202020" x="24.4" y="245.5" width="36.6" height="24.65" shape-rendering="crispEdges"/><rect fill="#202020" x="61" y="245.5" width="36.6" height="24.65" shape-rendering="crispEdges"/><rect fill="#202020" x="97.6" y="245.5" width="12.2" height="24.65" shape-rendering="crispEdges"/><rect fill="#202020" x="109.8" y="245.5" width="439.2" height="24.65" shape-rendering="crispEdges"/><rect fill="#202020" x="549" y="245.5" width="12.2" height="24.65" shape-rendering="crispEdges"/><rect fill="#202020" x="0" y="269.9" width="24.4" height="24.65" shape-rendering="crispEdges"/><rect fill="#202020" x="24.4" y="269.9" width="36.6" height="24.65" shape-rendering="crispEdges"/><rect fill="#202020" x="61" y="269.9" width="36.6" height="24.65" shape-rendering="crispEdges"/><rect fill="#202020" x="97.6" y="269.9" width="12.2" height="24.65" shape-rendering="crispEdges"/><rect fill="#202020" x="109.8" y="269.9" width="12.2" height="24.65" shape-rendering="crispEdges"/><rect fill="#202020" x="122" y="269.9" width="12.2" height="24.65" shape-rendering="crispEdges"/><rect fill="#202020" x="134.2" y="269.9" width="414.8" height="24.65" shape-rendering="crispEdges"/><rect fill="#202020" x="549" y="269.9" width="12.2" height="24.65" shape-rendering="crispEdges"/>
    <g class="terminal-1326831548-matrix">
    <text class="terminal-1326831548-r2" x="24.4" y="20" textLength="36.6" clip-path="url(#terminal-1326831548-line-0)">&#160;1&#160;</text><text class="terminal-1326831548-r3" x="61" y="20" textLength="109.8" clip-path="url(#terminal-1326831548-line-0)">#!/bin/sh</text><text class="terminal-1326831548-r4" x="561.2" y="20" textLength="12.2" clip-path="url(#terminal-1326831548-line-0)">
</text><text class="terminal-1326831548-r2" x="24.4" y="44.4" textLength="36.6" clip-path="url(#terminal-1326831548-line-1)">&#160;2&#160;</text><text class="terminal-1326831548-r4" x="561.2" y="44.4" textLength="12.2" clip-path="url(#terminal-1326831548-line-1)">
</text><text class="terminal-1326831548-r2" x="24.4" y="68.8" textLength="36.6" clip-path="url(#terminal-1326831548-line-2)">&#160;3&#160;</text><text class="terminal-1326831548-r3" x="61" y="68.8" textLength="488" clip-path="url(#terminal-1326831548-line-2)">#&#160;Adjust&#160;path&#160;to&#160;lib_msg.sh&#160;as&#160;necessary</text><text class="terminal-1326831548-r4" x="561.2" y="68.8" textLength="12.2" clip-path="url(#terminal-1326831548-line-2)">
</text><text class="terminal-1326831548-r2" x="24.4" y="93.2" textLength="36.6" clip-path="url(#terminal-1326831548-line-3)">&#160;4&#160;</text><text class="terminal-1326831548-r3" x="61" y="93.2" textLength="390.4" clip-path="url(#terminal-1326831548-line-3)">#&#160;shellcheck&#160;source=./lib_msg.sh</text><text class="terminal-1326831548-r4" x="561.2" y="93.2" textLength="12.2" clip-path="url(#terminal-1326831548-line-3)">
</text><text class="terminal-1326831548-r2" x="24.4" y="117.6" textLength="36.6" clip-path="url(#terminal-1326831548-line-4)">&#160;5&#160;</text><text class="terminal-1326831548-r5" x="61" y="117.6" textLength="12.2" clip-path="url(#terminal-1326831548-line-4)">.</text><text class="terminal-1326831548-r7" x="85.4" y="117.6" textLength="170.8" clip-path="url(#terminal-1326831548-line-4)">&quot;./lib_msg.sh&quot;</text><text class="terminal-1326831548-r4" x="561.2" y="117.6" textLength="12.2" clip-path="url(#terminal-1326831548-line-4)">
</text><text class="terminal-1326831548-r2" x="24.4" y="142" textLength="36.6" clip-path="url(#terminal-1326831548-line-5)">&#160;6&#160;</text><text class="terminal-1326831548-r4" x="561.2" y="142" textLength="12.2" clip-path="url(#terminal-1326831548-line-5)">
</text><text class="terminal-1326831548-r2" x="24.4" y="166.4" textLength="36.6" clip-path="url(#terminal-1326831548-line-6)">&#160;7&#160;</text><text class="terminal-1326831548-r3" x="61" y="166.4" textLength="292.8" clip-path="url(#terminal-1326831548-line-6)">#&#160;Your&#160;script&#160;logic&#160;here</text><text class="terminal-1326831548-r4" x="561.2" y="166.4" textLength="12.2" clip-path="url(#terminal-1326831548-line-6)">
</text><text class="terminal-1326831548-r2" x="24.4" y="190.8" textLength="36.6" clip-path="url(#terminal-1326831548-line-7)">&#160;8&#160;</text><text class="terminal-1326831548-r5" x="61" y="190.8" textLength="36.6" clip-path="url(#terminal-1326831548-line-7)">msg</text><text class="terminal-1326831548-r7" x="109.8" y="190.8" textLength="207.4" clip-path="url(#terminal-1326831548-line-7)">&quot;Script&#160;started.&quot;</text><text class="terminal-1326831548-r4" x="561.2" y="190.8" textLength="12.2" clip-path="url(#terminal-1326831548-line-7)">
</text><text class="terminal-1326831548-r2" x="24.4" y="215.2" textLength="36.6" clip-path="url(#terminal-1326831548-line-8)">&#160;9&#160;</text><text class="terminal-1326831548-r5" x="61" y="215.2" textLength="48.8" clip-path="url(#terminal-1326831548-line-8)">info</text><text class="terminal-1326831548-r7" x="122" y="215.2" textLength="317.2" clip-path="url(#terminal-1326831548-line-8)">&quot;Here&#x27;s&#160;some&#160;information.&quot;</text><text class="terminal-1326831548-r4" x="561.2" y="215.2" textLength="12.2" clip-path="url(#terminal-1326831548-line-8)">
</text><text class="terminal-1326831548-r2" x="24.4" y="239.6" textLength="36.6" clip-path="url(#terminal-1326831548-line-9)">10&#160;</text><text class="terminal-1326831548-r5" x="61" y="239.6" textLength="48.8" clip-path="url(#terminal-1326831548-line-9)">warn</text><text class="terminal-1326831548-r7" x="122" y="239.6" textLength="402.6" clip-path="url(#terminal-1326831548-line-9)">&quot;Something&#160;to&#160;be&#160;cautious&#160;about.&quot;</text><text class="terminal-1326831548-r4" x="561.2" y="239.6" textLength="12.2" clip-path="url(#terminal-1326831548-line-9)">
</text><text class="terminal-1326831548-r2" x="24.4" y="264" textLength="36.6" clip-path="url(#terminal-1326831548-line-10)">11&#160;</text><text class="terminal-1326831548-r5" x="61" y="264" textLength="36.6" clip-path="url(#terminal-1326831548-line-10)">err</text><text class="terminal-1326831548-r7" x="109.8" y="264" textLength="439.2" clip-path="url(#terminal-1326831548-line-10)">&quot;An&#160;error&#160;occurred&#160;(but&#160;not&#160;fatal).&quot;</text><text class="terminal-1326831548-r4" x="561.2" y="264" textLength="12.2" clip-path="url(#terminal-1326831548-line-10)">
</text><text class="terminal-1326831548-r2" x="24.4" y="288.4" textLength="36.6" clip-path="url(#terminal-1326831548-line-11)">12&#160;</text><text class="terminal-1326831548-r5" x="61" y="288.4" textLength="36.6" clip-path="url(#terminal-1326831548-line-11)">die</text><text class="terminal-1326831548-r8" x="109.8" y="288.4" textLength="12.2" clip-path="url(#terminal-1326831548-line-11)">1</text><text class="terminal-1326831548-r7" x="134.2" y="288.4" textLength="414.8" clip-path="url(#terminal-1326831548-line-11)">&quot;A&#160;fatal&#160;error&#160;occurred,&#160;exiting.&quot;</text><text class="terminal-1326831548-r4" x="561.2" y="288.4" textLength="12.2" clip-path="url(#terminal-1326831548-line-11)">
</text>
    </g>
    </g>
</svg>
